# xmcd
#
# Track frame offsets:
# 150
# 19960
# 37919
# 59200
# 76604
# 87252
# 107985
# 122904
# 138751
# 154411
# 171234
#
# Disc length: 2568 seconds
#
#
# Revision: 1
# Processed by: cddbd v1.5.1PL2 Copyright (c) Steve Scherf et al.
# Submitted via: FreeRIP 2.944 
#
DISCID=900a060b
DTITLE=Jan James - Limousine Blues
DYEAR=2003
DGENRE=Bluesrock
TTITLE0=Build Me A Man
TTITLE1=I Got A Feelin'
TTITLE2=Rise Above
TTITLE3=Did What I Did
TTITLE4=Montgomery
TTITLE5=Limousine Blues
TTITLE6=Chain Of Fools
TTITLE7=Young Man
TTITLE8=Back Down To Memphis
TTITLE9=Fool Of Me
TTITLE10=Pack My Suitcase
EXTD=
EXTT0=
EXTT1=
EXTT2=
EXTT3=
EXTT4=
EXTT5=
EXTT6=
EXTT7=
EXTT8=
EXTT9=
EXTT10=
PLAYORDER=
